inDegrees=no
num_controls=7
num_derivatives=13
num_iterations=90
num_multipliers=7
num_parameters=0
num_slacks=7
num_states=26
objective=0.370630
objective_accelerations=0.041108
objective_balance=0.007690
objective_effort=0.040063
objective_height=0.279909
objective_ligament=0.001859
solver_duration=1143.210105
status=Solve_Succeeded
success=true
DataType=double
version=3
OpenSimVersion=4.5
endheader
time	/jointset/ground_pelvis/pelvis_tilt/value	/jointset/ground_pelvis/pelvis_tx/value	/jointset/ground_pelvis/pelvis_ty/value	/jointset/hip_l/hip_flexion_l/value	/jointset/hip_l/hip_adduction_l/value	/jointset/hip_l/hip_rotation_l/value	/jointset/back/lumbar_extension/value	/jointset/patellofemoral_l/patellar_flexion_l/value	/jointset/knee_l/knee_flexion_l/value	/jointset/knee_l/knee_adduction_l/value	/jointset/knee_l/knee_rotation_l/value	/jointset/ankle_l/ankle_angle_l/value	/jointset/subtalar_l/subtalar_angle_l/value	/jointset/ground_pelvis/pelvis_tilt/speed	/jointset/ground_pelvis/pelvis_tx/speed	/jointset/ground_pelvis/pelvis_ty/speed	/jointset/hip_l/hip_flexion_l/speed	/jointset/hip_l/hip_adduction_l/speed	/jointset/hip_l/hip_rotation_l/speed	/jointset/back/lumbar_extension/speed	/jointset/patellofemoral_l/patellar_flexion_l/speed	/jointset/knee_l/knee_flexion_l/speed	/jointset/knee_l/knee_adduction_l/speed	/jointset/knee_l/knee_rotation_l/speed	/jointset/ankle_l/ankle_angle_l/speed	/jointset/subtalar_l/subtalar_angle_l/speed	/forceset/tau_hip_flexion_l	/forceset/tau_hip_adduction_l	/forceset/tau_hip_rotation_l	/forceset/tau_knee_flexion_l	/forceset/tau_ankle_angle_l	/forceset/tau_subtalar_angle_l	/forceset/tau_lumbar_extension	lambda_cid13_p0	lambda_cid13_p1	lambda_cid13_p2	lambda_cid13_p3	lambda_cid13_p4	lambda_cid13_p5	lambda_cid14_p0	/jointset/ground_pelvis/pelvis_tilt/accel	/jointset/ground_pelvis/pelvis_tx/accel	/jointset/ground_pelvis/pelvis_ty/accel	/jointset/hip_l/hip_flexion_l/accel	/jointset/hip_l/hip_adduction_l/accel	/jointset/hip_l/hip_rotation_l/accel	/jointset/back/lumbar_extension/accel	/jointset/patellofemoral_l/patellar_flexion_l/accel	/jointset/knee_l/knee_flexion_l/accel	/jointset/knee_l/knee_adduction_l/accel	/jointset/knee_l/knee_rotation_l/accel	/jointset/ankle_l/ankle_angle_l/accel	/jointset/subtalar_l/subtalar_angle_l/accel	gamma_cid13_p0	gamma_cid13_p1	gamma_cid13_p2	gamma_cid13_p3	gamma_cid13_p4	gamma_cid13_p5	gamma_cid14_p0
1	-0.1790623131137951	-0.01692042491010688	0.3975499548697191	2.094395102393195	-0.2348500184223692	0.1060522448210479	-0.4363323129985824	2.094395111812315	2.094395102393195	0.1745329182487695	0.1745329124756987	0.4363323129985824	0.147803184025487	-0.005063298918098429	0.0004179441212206265	-0.0001789112910007888	0.003985912819444779	-3.713102927033487e-05	0.0001023403745785493	-4.738801029290849e-06	-0.0005199283506471374	-0.0005199283506471518	-0.0002290071452295786	-6.659302737004726e-06	0.0005712731543457416	0.0002032081371230508	-0.09215744902842105	-0.03324398521551743	-0.06785496390912912	-0.5499832549367324	0.1829690787874879	0.02013006646754027	0.1412268556436283	15.92679269508753	-2.77605747173042	-9.960265330839754	-14.72777135140935	-674.1445523065971	-79.85827429911599	-0.02173054166180173	-2.210128511060916	-0.2197955115634133	0.7937101574858805	-0.6521967234746936	-0.1771294068094055	-1.003744523632456	0.02079045380366682	-2.84532111347471	-2.845321113474722	-0.01855717869623837	0.01084444295336517	-0.1336313551233899	-0.3225452504818213	2.746197491170898e-09	1.899433233945349e-09	2.720109431905548e-09	-1.027141439675901e-08	-3.38531913466411e-09	1.162116648438747e-08	-1.040386329469006e-09
1.01	-0.179221835474405	-0.01692777383303875	0.397589782480412	2.0943950947685	-0.2348588174039696	0.1060036938263324	-0.4363321390713489	2.094242802888939	2.094242802888938	0.1745281697158994	0.174532656346675	0.4363320437385492	0.1477901361901642	-0.02675203168584291	-0.001944651107020424	0.008328224158652664	-0.004614010519484752	-0.001710971894176596	-0.00979067845176578	3.344928437221271e-05	-0.03043429588850851	-0.03043429588850831	-0.0008671536743736984	-5.83295820656536e-05	-0.0006007494930919844	-0.00277988427630877	-0.09676410330199449	-0.03228885438362077	-0.06800484218025056	-0.5527327403869821	0.1795542102843668	0.01996212358018514	0.1450510752925552	14.3620272069895	-2.353396894146536	-10.1141667140017	-12.36816255198034	-679.9122858515371	-79.80341475231607	-0.02172329802107506	-2.134871760314359	-0.253008765886328	0.9067904088060278	-1.057333711532807	-0.160755936916957	-0.9787996519196338	-0.005649141891155234	-3.138361927482915	-3.138361927482903	-0.1084092309898692	-0.01523666593419771	-0.105134637468094	-0.2812573578363493	-2.89300356325003e-08	5.692551107694915e-10	3.136533914317363e-09	1.044534047758092e-07	3.244184954983887e-08	-3.582946614282059e-08	7.013464468780773e-09
1.02	-0.1795955703828276	-0.01696045215573944	0.3977201964796216	2.094290381181756	-0.2348840036963359	0.1058568688253969	-0.436331777326038	2.093776576819477	2.093776576819479	0.1745126465495411	0.1745314707343361	0.4363208181421528	0.1477482442064946	-0.04790580848091481	-0.004647935832544966	0.01793836641234161	-0.01695167675564458	-0.003314593182512325	-0.01955246086947891	3.235225778896952e-05	-0.0633033575680121	-0.06330335756801217	-0.00238393384217244	-0.0001925559637223817	-0.001618648857093979	-0.005565621532240397	-0.1013707575755695	-0.03133372355172464	-0.06815472045137301	-0.5554822258372312	0.1761393417812465	0.01979418069282949	0.1488752949414812	12.79740758617427	-1.928795365079844	-10.27062375463581	-9.978435020493546	-685.6592967620036	-79.71547031524184	-0.02175290407985322	-2.103137316526426	-0.2879334110200996	1.014311518292977	-1.399745302920738	-0.1630854914953144	-0.977497241906223	0.01293343140658638	-3.436259941803141	-3.436259941803248	-0.1942839064271637	-0.005666777512227689	-0.1028066984362175	-0.2830742189817963	-3.170086981939399e-08	-1.038819830867843e-08	-9.808203817268442e-09	1.149022641980315e-07	3.258589519914064e-08	-8.219321782277569e-08	9.754035808558336e-09
1.03	-0.1801776329738291	-0.01702180234907645	0.3979523610036441	2.094042715225747	-0.2349249223475932	0.1056139968600806	-0.4363315430273468	2.092966735625516	2.092966735625517	0.174476664831527	0.1745289806059299	0.436300435956191	0.1476794940742214	-0.06836071199738446	-0.00767202380633104	0.02869159556042067	-0.03329100417427969	-0.004868129633145384	-0.02899237637572098	1.353900716283342e-05	-0.09916787355128914	-0.0991678735512883	-0.00497445014170458	-0.0002958226618106268	-0.002411250429909505	-0.008159979544918643	-0.1070399267137984	-0.03016688359575266	-0.06826347372180776	-0.5577895185393676	0.1719441510918223	0.01957944338978058	0.1535160874712958	10.95222693574565	-1.426187932361157	-10.44929334284479	-7.435794636014167	-691.7958990477276	-79.41747808074962	-0.02177726575477129	-1.994763630708523	-0.3171097219834024	1.135393660140267	-1.85744734115723	-0.151331107525441	-0.9228033214243665	-0.009433974501079825	-3.736998779997854	-3.736998779997671	-0.3157351920446678	-0.0112000240976804	-0.06051308210765883	-0.2439457120970397	-3.417675095591223e-08	-2.144388923114959e-08	-2.288927993879307e-08	1.242870832146374e-07	3.236582734808302e-08	-1.2854587888082e-07	1.244039001100452e-08
